<svg width="960" height="960" viewBox="0 0 960 960" fill="none" xmlns="http://www.w3.org/2000/svg">
  <defs>
    <radialGradient id="g1" cx="0" cy="0" r="1" gradientUnits="userSpaceOnUse" gradientTransform="translate(480 430) rotate(90) scale(290)">
      <stop stop-color="#FF5A5A"/>
      <stop offset="1" stop-color="#9E0000"/>
    </radialGradient>
    <filter id="blur" x="-200" y="-200" width="1360" height="1360" filterUnits="userSpaceOnUse">
      <feGaussianBlur stdDeviation="60"/>
    </filter>
  </defs>
  <ellipse cx="480" cy="460" rx="270" ry="190" fill="url(#g1)"/>
  <path d="M220 470C290 560 670 560 740 470" stroke="#FFC2C2" stroke-width="9" stroke-linecap="round"/>
  <path d="M320 570C302 648 250 718 252 806" stroke="#FF6B6B" stroke-width="10" stroke-linecap="round"/>
  <path d="M390 580C390 666 346 748 352 836" stroke="#FF8E8E" stroke-width="8" stroke-linecap="round"/>
  <path d="M480 590C498 684 472 760 480 850" stroke="#FFE4E4" stroke-width="9" stroke-linecap="round"/>
  <path d="M570 580C592 680 610 750 598 846" stroke="#FF9E9E" stroke-width="8" stroke-linecap="round"/>
  <path d="M640 570C676 650 714 722 698 810" stroke="#FF6B6B" stroke-width="10" stroke-linecap="round"/>
  <g filter="url(#blur)">
    <circle cx="480" cy="500" r="250" fill="#FF2020" fill-opacity="0.34"/>
  </g>
</svg>
